<?xml version="1.0" standalone="no"?>
<!DOCTYPE svg PUBLIC "-//W3C//DTD SVG 20010904//EN"
 "http://www.w3.org/TR/2001/REC-SVG-20010904/DTD/svg10.dtd">
<svg version="1.0" xmlns="http://www.w3.org/2000/svg"
 width="512.000000pt" height="512.000000pt" viewBox="0 0 512.000000 512.000000"
 preserveAspectRatio="xMidYMid meet">
<metadata>
Created by potrace 1.11, written by Peter Selinger 2001-2013
</metadata>
<g transform="translate(0.000000,512.000000) scale(0.100000,-0.100000)"
fill="#000000" stroke="none">
<path d="M2296 5098 c-32 -29 -103 -219 -137 -363 -56 -247 -41 -452 44 -598
45 -77 138 -154 226 -187 32 -13 47 -25 52 -42 7 -26 4 -525 -4 -598 -3 -25
-8 -81 -12 -125 -8 -85 -12 -116 -18 -121 -2 -2 -21 -6 -43 -8 -21 -2 -66 -7
-99 -11 -511 -55 -1006 -432 -1207 -920 -39 -96 -82 -235 -92 -299 -4 -22 -8
-48 -11 -60 -23 -111 -21 -340 4 -487 59 -341 209 -623 458 -860 211 -201 478
-338 768 -396 142 -28 436 -25 578 5 106 23 210 55 291 89 121 52 313 169 393
240 17 15 39 35 50 44 73 63 190 203 258 307 220 340 294 776 199 1172 -104
431 -387 798 -772 1001 -150 79 -369 149 -512 164 -100 10 -102 11 -96 53 8
52 15 115 21 206 5 59 11 83 23 92 9 7 31 24 47 39 45 39 201 156 275 205 36
23 77 51 92 61 15 11 30 19 32 19 3 0 35 -20 72 -45 265 -177 542 -87 788 255
78 110 177 292 178 330 2 53 -34 79 -133 94 -191 31 -384 37 -514 16 -288 -45
-463 -210 -489 -460 -4 -35 -8 -65 -9 -66 -102 -67 -229 -155 -278 -193 -35
-27 -65 -48 -66 -47 -2 2 -5 84 -8 182 l-5 180 55 46 c322 271 247 630 -215
1029 -101 87 -137 98 -184 57z"/>
</g>
</svg>
